<svg width="104" height="103" viewBox="0 0 104 103" fill="none" xmlns="http://www.w3.org/2000/svg">
<path d="M99.6582 42.9301H95.0305L83.1268 16.1491C82.5882 14.9374 81.7096 13.908 80.5977 13.1855C79.4858 12.4629 78.1883 12.0784 76.8622 12.0784H26.4711C25.1451 12.0784 23.8475 12.4629 22.7356 13.1855C21.6237 13.908 20.7452 14.9374 20.2065 16.1491L8.30286 42.9301H3.6751C2.76595 42.9301 1.89403 43.2913 1.25116 43.9341C0.608291 44.577 0.247131 45.4489 0.247131 46.3581C0.247131 47.2672 0.608291 48.1391 1.25116 48.782C1.89403 49.4249 2.76595 49.786 3.6751 49.786H7.10307V84.0657C7.10307 85.884 7.82539 87.6279 9.11113 88.9136C10.3969 90.1993 12.1407 90.9217 13.959 90.9217H24.2429C26.0612 90.9217 27.8051 90.1993 29.0908 88.9136C30.3765 87.6279 31.0989 85.884 31.0989 84.0657V80.6377H72.2345V84.0657C72.2345 85.884 72.9568 87.6279 74.2425 88.9136C75.5283 90.1993 77.2721 90.9217 79.0904 90.9217H89.3743C91.1926 90.9217 92.9365 90.1993 94.2222 88.9136C95.5079 87.6279 96.2303 85.884 96.2303 84.0657V49.786H99.6582C100.567 49.786 101.439 49.4249 102.082 48.782C102.725 48.1391 103.086 47.2672 103.086 46.3581C103.086 45.4489 102.725 44.577 102.082 43.9341C101.439 43.2913 100.567 42.9301 99.6582 42.9301ZM31.0989 63.4979H20.8149C19.9058 63.4979 19.0339 63.1367 18.391 62.4939C17.7481 61.851 17.387 60.9791 17.387 60.0699C17.387 59.1608 17.7481 58.2889 18.391 57.646C19.0339 57.0031 19.9058 56.642 20.8149 56.642H31.0989C32.008 56.642 32.8799 57.0031 33.5228 57.646C34.1657 58.2889 34.5268 59.1608 34.5268 60.0699C34.5268 60.9791 34.1657 61.851 33.5228 62.4939C32.8799 63.1367 32.008 63.4979 31.0989 63.4979ZM82.5184 63.4979H72.2345C71.3253 63.4979 70.4534 63.1367 69.8105 62.4939C69.1677 61.851 68.8065 60.9791 68.8065 60.0699C68.8065 59.1608 69.1677 58.2889 69.8105 57.646C70.4534 57.0031 71.3253 56.642 72.2345 56.642H82.5184C83.4275 56.642 84.2995 57.0031 84.9423 57.646C85.5852 58.2889 85.9464 59.1608 85.9464 60.0699C85.9464 60.9791 85.5852 61.851 84.9423 62.4939C84.2995 63.1367 83.4275 63.4979 82.5184 63.4979ZM15.8058 42.9301L26.4711 18.9343H76.8622L87.5275 42.9301H15.8058Z" fill="#E6954E"/>
</svg>
