<svg width="104" height="103" viewBox="0 0 104 103" fill="none" xmlns="http://www.w3.org/2000/svg">
<path d="M18.0002 90.125C16.7842 90.125 15.7657 89.713 14.9445 88.889C14.1234 88.065 13.7114 87.0464 13.7085 85.8333C13.7056 84.6202 14.1177 83.6017 14.9445 82.7777C15.7714 81.9537 16.7899 81.5417 18.0002 81.5417H22.2918V21.4583C22.2918 19.0979 23.133 17.078 24.8153 15.3985C26.4977 13.719 28.5176 12.8779 30.8752 12.875H73.7919C76.1523 12.875 78.1736 13.7162 79.856 15.3985C81.5383 17.0808 82.378 19.1008 82.3752 21.4583V81.5417H86.6669C87.8828 81.5417 88.9028 81.9537 89.7268 82.7777C90.5508 83.6017 90.9614 84.6202 90.9585 85.8333C90.9557 87.0464 90.5437 88.0664 89.7225 88.8933C88.9014 89.7201 87.8828 90.1307 86.6669 90.125H18.0002ZM43.7502 55.7917C44.9662 55.7917 45.9861 55.3797 46.8101 54.5557C47.6341 53.7317 48.0447 52.7131 48.0418 51.5C48.039 50.2869 47.627 49.2683 46.8058 48.4443C45.9847 47.6203 44.9662 47.2083 43.7502 47.2083C42.5342 47.2083 41.5157 47.6203 40.6945 48.4443C39.8734 49.2683 39.4614 50.2869 39.4585 51.5C39.4557 52.7131 39.8677 53.7331 40.6945 54.56C41.5214 55.3868 42.5399 55.7974 43.7502 55.7917Z" fill="#E6954E"/>
</svg>
