<svg width="35" height="34" viewBox="0 0 35 34" fill="none" xmlns="http://www.w3.org/2000/svg">
<rect width="34.94" height="34" rx="5" fill="#F0F0F0"/>
<path d="M22.1917 13.4611C22.1928 12.3689 21.8331 11.3069 21.1686 10.4401C20.504 9.57332 19.5719 8.95022 18.5169 8.66761C17.4618 8.38501 16.343 8.45871 15.3342 8.87727C14.3254 9.29583 13.483 10.0358 12.9379 10.9823C12.7501 11.3078 12.6992 11.6946 12.7966 12.0576C12.894 12.4206 13.1315 12.7301 13.4571 12.9179C13.7826 13.1057 14.1694 13.1566 14.5324 13.0592C14.8954 12.9619 15.2048 12.7243 15.3927 12.3988C15.5793 12.0756 15.8477 11.8072 16.1709 11.6207C16.4942 11.4342 16.8609 11.3362 17.2341 11.3364C17.7976 11.3364 18.338 11.5603 18.7365 11.9587C19.1349 12.3572 19.3588 12.8976 19.3588 13.4611C19.3588 14.0246 19.1349 14.5651 18.7365 14.9635C18.338 15.362 17.7976 15.5858 17.2341 15.5858H17.2298C17.1385 15.5955 17.0484 15.614 16.9607 15.6411C16.8655 15.6504 16.7716 15.6694 16.6802 15.6977C16.6026 15.7403 16.529 15.7901 16.4607 15.8465C16.3793 15.8908 16.3024 15.943 16.2312 16.0023C16.1675 16.0784 16.1119 16.161 16.0655 16.2487C16.0139 16.3126 15.9679 16.3809 15.9281 16.4527C15.897 16.5503 15.8766 16.651 15.8672 16.753C15.8432 16.8345 15.8266 16.9179 15.8176 17.0023V18.4188L15.8204 18.4344V19.1298C15.8212 19.505 15.9707 19.8646 16.2363 20.1296C16.5019 20.3946 16.8617 20.5435 17.2369 20.5435H17.2412C17.4272 20.5431 17.6113 20.5061 17.783 20.4346C17.9547 20.363 18.1107 20.2584 18.2419 20.1266C18.3732 19.9948 18.4772 19.8384 18.5481 19.6665C18.6189 19.4945 18.6552 19.3102 18.6548 19.1242L18.652 18.1865C19.6718 17.8845 20.5671 17.2616 21.2048 16.4103C21.8424 15.559 22.1886 14.5248 22.1917 13.4611ZM16.2383 23.079C16.0394 23.2762 15.9034 23.5281 15.8477 23.8026C15.7919 24.0771 15.8187 24.362 15.9249 24.6213C16.031 24.8806 16.2116 25.1025 16.4439 25.2591C16.6762 25.4157 16.9497 25.5 17.2298 25.5011C17.6051 25.4973 17.9649 25.3504 18.2355 25.0904C18.4985 24.8217 18.6458 24.4606 18.6458 24.0847C18.6458 23.7087 18.4985 23.3477 18.2355 23.079C17.9644 22.8263 17.6075 22.6857 17.2369 22.6857C16.8663 22.6857 16.5094 22.8263 16.2383 23.079Z" fill="#E6954E"/>
</svg>
