<svg width="67" height="67" viewBox="0 0 67 67" fill="none" xmlns="http://www.w3.org/2000/svg">
<path d="M33.5 6.69995C29.9461 6.69995 26.5377 8.11173 24.0248 10.6247C21.5118 13.1377 20.1 16.5461 20.1 20.1C20.1 23.6539 21.5118 27.0622 24.0248 29.5752C26.5377 32.0882 29.9461 33.5 33.5 33.5C37.0539 33.5 40.4622 32.0882 42.9752 29.5752C45.4882 27.0622 46.9 23.6539 46.9 20.1C46.9 16.5461 45.4882 13.1377 42.9752 10.6247C40.4622 8.11173 37.0539 6.69995 33.5 6.69995ZM16.7801 36.85C15.8977 36.846 15.0233 37.0163 14.2069 37.3513C13.3905 37.6862 12.6484 38.1791 12.023 38.8016C11.3977 39.4242 10.9015 40.1641 10.5629 40.979C10.2243 41.7938 10.05 42.6675 10.05 43.5499C10.05 49.2148 12.8405 53.4861 17.2022 56.2699C21.4969 59.0069 27.2857 60.2999 33.5 60.2999C34.6971 60.2999 35.8763 60.2519 37.0376 60.1559C36.7697 58.9955 36.787 57.7874 37.0881 56.6352C37.3891 55.4829 37.9649 54.4207 38.7662 53.5396L40.5919 51.5062C41.4228 50.5852 42.4854 49.9038 43.6691 49.5332C44.8529 49.1626 46.1144 49.1163 47.3221 49.3991L49.9518 50.0222C51.2181 48.977 51.9853 47.7441 52.337 46.2668L50.6017 44.5717C49.6968 43.687 49.0699 42.5572 48.7979 41.3212C48.5259 40.0852 48.6208 38.7966 49.0708 37.6137L49.3589 36.85H16.7801ZM52.2064 38.7996L53.1544 36.2871C54.0187 34.0058 56.7121 32.8802 58.9834 33.8484L60.2832 34.4045C61.8678 35.0812 63.1776 36.3073 63.4557 37.9555C64.9866 47.0842 57.0639 60.0688 47.9452 63.382C46.297 63.9782 44.5181 63.5159 43.1044 62.5578L41.9453 61.7706C41.4695 61.4501 41.0688 61.0301 40.771 60.5397C40.4732 60.0493 40.2853 59.5001 40.2203 58.93C40.1553 58.3599 40.2148 57.7826 40.3947 57.2377C40.5745 56.6928 40.8704 56.1935 41.2619 55.7741L43.0877 53.7407C43.5165 53.2684 44.0637 52.9191 44.6726 52.7289C45.2815 52.5387 45.9302 52.5144 46.5516 52.6586L50.6553 53.6301C53.9093 51.5978 55.6535 48.7391 55.888 45.0541L52.9467 42.1764C52.5074 41.7471 52.2033 41.1987 52.0718 40.5987C51.9402 39.9987 51.987 39.3734 52.2064 38.7996Z" fill="#2A3F54"/>
</svg>
