<svg width="36" height="36" viewBox="0 0 36 36" fill="none" xmlns="http://www.w3.org/2000/svg">
<path d="M21.78 3C23.3235 3 24.8025 3.6135 25.893 4.704L31.296 10.107C31.836 10.647 32.2644 11.2881 32.5567 11.9937C32.849 12.6993 32.9994 13.4555 32.9994 14.2192C32.9994 14.983 32.849 15.7392 32.5567 16.4448C32.2644 17.1504 31.836 17.7915 31.296 18.3315L27.3315 22.296C26.3698 23.2568 25.1021 23.8506 23.7483 23.9745C22.3945 24.0983 21.0401 23.7444 19.92 22.974L19.7625 22.857L10.9395 31.6815C10.2566 32.3621 9.37327 32.8053 8.4195 32.946L8.0895 32.9865L7.758 33H6C4.479 33 3.1995 31.8615 3.0135 30.2655L3 30V28.242C3 27.186 3.372 26.163 4.095 25.302L4.3185 25.0605L4.9395 24.4395C5.22074 24.1582 5.60221 24.0001 6 24H7.5V22.5C7.50005 22.1326 7.63493 21.778 7.87907 21.5034C8.12321 21.2289 8.45962 21.0535 8.8245 21.0105L9 21H10.5V19.5C10.5 19.1703 10.6086 18.8498 10.809 18.588L10.9395 18.438L13.1415 16.2345L13.0275 16.08C12.4286 15.2085 12.0771 14.1909 12.0105 13.1355L12 12.7815C12 11.238 12.6135 9.759 13.704 8.6685L17.6685 4.704C18.7591 3.61372 20.2379 3.00085 21.78 3ZM22.5225 10.5H22.4925C21.6968 10.5 20.9338 10.8161 20.3712 11.3787C19.8086 11.9413 19.4925 12.7044 19.4925 13.5C19.4925 14.2956 19.8086 15.0587 20.3712 15.6213C20.9338 16.1839 21.6968 16.5 22.4925 16.5H22.5225C23.3181 16.5 24.0812 16.1839 24.6438 15.6213C25.2064 15.0587 25.5225 14.2956 25.5225 13.5C25.5225 12.7044 25.2064 11.9413 24.6438 11.3787C24.0812 10.8161 23.3181 10.5 22.5225 10.5Z" fill="#E6954E"/>
</svg>
