<svg width="104" height="103" viewBox="0 0 104 103" fill="none" xmlns="http://www.w3.org/2000/svg">
<path fill-rule="evenodd" clip-rule="evenodd" d="M30.5416 30.0416C30.5416 18.1881 40.1464 8.58331 52 8.58331C63.8536 8.58331 73.4583 18.1881 73.4583 30.0416V42.9166H75.175C78.9516 42.9166 82.0416 46.0066 82.0416 49.7833V79.825C82.0416 85.49 77.4066 90.125 71.7416 90.125H32.2583C26.5933 90.125 21.9583 85.49 21.9583 79.825V49.7833C21.9583 46.0066 25.0483 42.9166 28.825 42.9166H30.5416V30.0416ZM64.875 30.0416V42.9166H39.125V30.0416C39.125 22.9261 44.8844 17.1666 52 17.1666C59.1156 17.1666 64.875 22.9261 64.875 30.0416ZM52 52.5729C50.2933 52.5711 48.637 53.1506 47.3037 54.216C45.9705 55.2814 45.0398 56.7691 44.6651 58.4341C44.2903 60.099 44.4938 61.842 45.242 63.3759C45.9901 64.9098 47.2384 66.1431 48.7812 66.8727V77.25C48.7812 78.1036 49.1203 78.9223 49.724 79.526C50.3276 80.1296 51.1463 80.4687 52 80.4687C52.8536 80.4687 53.6723 80.1296 54.276 79.526C54.8796 78.9223 55.2187 78.1036 55.2187 77.25V66.8727C56.7615 66.1431 58.0098 64.9098 58.758 63.3759C59.5062 61.842 59.7097 60.099 59.3349 58.4341C58.9601 56.7691 58.0295 55.2814 56.6962 54.216C55.363 53.1506 53.7066 52.5711 52 52.5729Z" fill="#2A3F54"/>
</svg>
