<svg width="26" height="25" viewBox="0 0 26 25" fill="none" xmlns="http://www.w3.org/2000/svg">
<path d="M11.2107 1.43697C11.6876 -0.0306044 13.7638 -0.0306017 14.2406 1.43697L16.1232 7.23088C16.3364 7.8872 16.948 8.33156 17.6381 8.33156H23.7302C25.2733 8.33156 25.9149 10.3062 24.6665 11.2132L19.7379 14.794C19.1796 15.1996 18.946 15.9186 19.1593 16.575L21.0418 22.3689C21.5187 23.8364 19.8389 25.0568 18.5906 24.1498L13.662 20.569C13.1037 20.1633 12.3477 20.1633 11.7894 20.569L6.86077 24.1498C5.61238 25.0568 3.93268 23.8364 4.40952 22.3689L6.29208 16.575C6.50533 15.9186 6.27171 15.1996 5.71342 14.794L0.78482 11.2132C-0.463574 10.3062 0.178018 8.33156 1.72112 8.33156H7.81319C8.50329 8.33156 9.1149 7.8872 9.32815 7.23088L11.2107 1.43697Z" fill="#E6954E"/>
</svg>
