<svg width="39" height="39" viewBox="0 0 39 39" fill="none" xmlns="http://www.w3.org/2000/svg">
<path d="M19.5 3.25C10.53 3.25 3.25 10.53 3.25 19.5C3.25 28.47 10.53 35.75 19.5 35.75C28.47 35.75 35.75 28.47 35.75 19.5C35.75 10.53 28.47 3.25 19.5 3.25ZM27.04 14.3C26.7962 16.8675 25.74 23.1075 25.2038 25.9837C24.9762 27.2025 24.5212 27.6088 24.0987 27.6575C23.1562 27.7388 22.4412 27.04 21.5312 26.4388C20.1012 25.4963 19.2888 24.9113 17.9075 24.0013C16.2988 22.945 17.3387 22.36 18.265 21.4175C18.5087 21.1737 22.6688 17.3875 22.75 17.0462C22.7613 16.9946 22.7598 16.9409 22.7456 16.8899C22.7315 16.839 22.7051 16.7922 22.6687 16.7538C22.5712 16.6725 22.4412 16.705 22.3275 16.7212C22.1812 16.7537 19.9062 18.265 15.47 21.255C14.82 21.6938 14.235 21.9212 13.715 21.905C13.13 21.8888 12.025 21.58 11.1962 21.3037C10.1725 20.9788 9.37625 20.8 9.44125 20.2312C9.47375 19.9387 9.88 19.6462 10.6438 19.3375C15.3888 17.2737 18.5413 15.9088 20.1175 15.2588C24.635 13.3738 25.5613 13.0487 26.1788 13.0487C26.3088 13.0487 26.6175 13.0812 26.8125 13.2437C26.975 13.3737 27.0237 13.5525 27.04 13.6825C27.0237 13.78 27.0562 14.0725 27.04 14.3Z" fill="#E6954E"/>
</svg>
