<?xml version="1.0" encoding="UTF-8"?>
<svg xmlns="http://www.w3.org/2000/svg" xmlns:xlink="http://www.w3.org/1999/xlink" width="32px" height="32px" viewBox="0 0 32 31" version="1.1">
<g id="surface1">
<path style=" stroke:none;fill-rule:evenodd;fill:rgb(16.470589%,24.705882%,32.941177%);fill-opacity:1;" d="M 9.398438 9.042969 C 9.398438 5.472656 12.351562 2.582031 16 2.582031 C 19.648438 2.582031 22.601562 5.472656 22.601562 9.042969 L 22.601562 12.917969 L 23.128906 12.917969 C 24.292969 12.917969 25.242188 13.847656 25.242188 14.984375 L 25.242188 24.023438 C 25.242188 25.730469 23.816406 27.125 22.074219 27.125 L 9.925781 27.125 C 8.183594 27.125 6.757812 25.730469 6.757812 24.023438 L 6.757812 14.984375 C 6.757812 13.847656 7.707031 12.917969 8.871094 12.917969 L 9.398438 12.917969 Z M 19.960938 9.042969 L 19.960938 12.917969 L 12.039062 12.917969 L 12.039062 9.042969 C 12.039062 6.898438 13.8125 5.167969 16 5.167969 C 18.1875 5.167969 19.960938 6.898438 19.960938 9.042969 Z M 16 15.824219 C 15.476562 15.824219 14.964844 15.996094 14.554688 16.316406 C 14.144531 16.636719 13.859375 17.085938 13.742188 17.585938 C 13.628906 18.089844 13.691406 18.613281 13.921875 19.074219 C 14.152344 19.535156 14.535156 19.90625 15.007812 20.125 L 15.007812 23.25 C 15.007812 23.507812 15.113281 23.753906 15.300781 23.933594 C 15.484375 24.117188 15.738281 24.21875 16 24.21875 C 16.261719 24.21875 16.515625 24.117188 16.699219 23.933594 C 16.886719 23.753906 16.992188 23.507812 16.992188 23.25 L 16.992188 20.125 C 17.464844 19.90625 17.847656 19.535156 18.078125 19.074219 C 18.308594 18.613281 18.371094 18.089844 18.257812 17.585938 C 18.140625 17.085938 17.855469 16.636719 17.445312 16.316406 C 17.035156 15.996094 16.523438 15.824219 16 15.824219 Z M 16 15.824219 "/>
</g>
</svg>
